<svg xmlns="http://www.w3.org/2000/svg" viewBox="0 0 1920 957.75"><defs><style>.cls-1{fill:#2121a3;}.cls-2{fill:#3131c4;}.cls-3{fill:#1b1666;}</style></defs><g id="Layer_2" data-name="Layer 2"><g id="Layer_1-2" data-name="Layer 1"><path class="cls-1" d="M1920,957.75H0V32.38a1769.68,1769.68,0,0,0,383.77,71.21C764.22,131.2,952.29,18.67,1340.23,2,1470.69-3.63,1670.5-.42,1920,53.59Z"/><path class="cls-2" d="M1920,957.75H0V32.62C84.07,66.22,215.47,110.56,380.55,131c320.75,39.75,511.3-42.56,851.61-80.64,160.43-18,395-30.66,687.84,3.22Z"/><path class="cls-3" d="M1920,957.75H0V32.38C86.39,75.73,233.67,139,424.1,164.88,741.94,208,924.86,112.2,1356.35,68.11,1481.86,55.28,1676.17,42,1920,53.59Z"/></g></g></svg>