<?xml version="1.0" encoding="utf-8"?>
<!-- Generator: Adobe Illustrator 25.4.1, SVG Export Plug-In . SVG Version: 6.00 Build 0)  -->
<svg version="1.1" id="Layer_1" xmlns="http://www.w3.org/2000/svg" xmlns:xlink="http://www.w3.org/1999/xlink" x="0px" y="0px"
	 viewBox="0 0 850.4 850.4" style="enable-background:new 0 0 850.4 850.4;" xml:space="preserve">
<style type="text/css">
	.st0{fill:#FFFFFF;}
</style>
<g id="ICONS">
	<path class="st0" d="M704.8,3.4c-0.6,0.3-63.6,25.6-137.8,75.3c-43.6,29.2-82.5,61-115.6,94.5c-41.5,42-74.1,86.9-96.8,133.3
		l-5.5,11.4c-21.2,1.7-52.7,8.1-88.5,27.9c-42.4,23.5-82.3,60.9-118.4,111l-2,2.7l31.7,80.7l6.6-6.3c0.5-0.4,30.5-28.6,66.1-49.4
		c-7.5,8.6-14.6,17.6-20.8,26.2c-27.6,38.9-56.8,126-58.1,129.7l-6.4,19.2l16-12.4c3.1-2.4,75.6-58.7,103.2-97.7
		c13.7-19.6,25.4-40.5,34.9-62.5c3.8,4.7,8.2,9,13,12.6v0.1c-31.2,51.6-48.5,80.4-56.4,94.8c-4.2,7.8-7.5,13.7-6.7,18.3
		c-19.7,16.1-44.7,45.5-62.7,74.3c-27.4,43.7-53.6,139.5-54.7,143.6l-5.3,19.6l15.3-13.3c3.2-2.8,78.1-68.1,105.5-111.8
		c16-25.5,32-61.5,39-87.4l0.6-0.2c5.8-2,11.3-8.3,82.2-98.7l0.1-0.1c5.5,3.4,11.4,6.1,17.6,7.9c-15.9,15.7-33.6,38.1-46.5,58.8
		c-25.1,40.5-48.9,129.3-49.9,133.1l-5.2,19.6l15.2-13.4c2.9-2.6,71.9-63.3,97-103.9c4.1-6.7,8.2-14,12.1-21.5
		c-7.3,38.7-21.7,73.8-22,74.3l-3.5,8.4l86.7,1.2l1.9-2.8c34.4-51.7,55.2-102.4,62.2-150.6c5.9-40.8,0.5-72.6-5.5-93
		c3.9-4.1,7.7-8.1,11.5-12.1c35.4-37.6,65.8-84,90.3-137.8c19.5-42.9,35.3-90.7,47-141.9c19.9-87.2,21-155.3,21-156l0.1-9.3
		L704.8,3.4z M176.9,518.9l-22.6-57.6c72.9-99.7,145.7-125.1,188.5-130.4c-17.2,35.5-29,60-38.2,79.5c-5.9,12.6-8.1,26.6-6.4,40.4
		C251,457,195.9,502.2,176.9,518.9z M268.8,542.5c-18.6,26.3-60.4,62.3-83.9,81.5c10.4-28.5,30.6-79.8,49.2-106.1
		c12.7-17.7,27-34.1,42.8-49c7.7-3,15.8-5,23.9-6.1c1.2,4,2.8,7.8,4.6,11.5C297.9,495.1,283.5,521.7,268.8,542.5z M251.1,718.8
		c-18.9,30.2-63.2,72.7-87.1,94.6c9.4-31.1,28.3-89.5,47.3-119.6c17.2-27.5,41.9-56.6,60.5-71.6c2.8,2,5.6,3.8,8.6,5.4
		c2.7,2.3,5.6,4.4,8.6,6.4C282.4,658.5,266.5,694.3,251.1,718.8z M373.7,531.5c-45.1,57.5-68.7,87.3-75.5,93.7
		c-3-1.4-7.9-5.2-10.3-7.3l-0.7-0.5l-0.4-0.2c-3.6-2-8.3-5-10.5-7.1c3.5-8.6,23.1-41.2,60.9-103.7c28.5-47.1,55.7-67.8,68.9-67
		c2.6,0,5,1.6,5.9,4.1C417.4,455.4,407.7,488.1,373.7,531.5z M401.3,634.6c-17,27.4-56.5,65.9-78.7,86.6
		c8.6-29.1,25.6-81.6,42.6-109c13.7-22.2,33.2-46.2,49.5-61.2l-1.5-1.7c2.9,0.4,5.8,0.5,8.7,0.5c0.7,0,1.4,0,2.1,0
		c3,9.2,4.2,19.8,4.1,30.9C420.7,599.4,411.8,617.4,401.3,634.6z M478.5,691.1l-61.9-0.8c7.1-18.8,23-65.5,23.7-107.2
		c0.5-1.3,1-2.6,1.4-3.9l-1.4-0.5c0-10.2-1.3-20.5-4-30.3c14-2.8,26.8-9.7,36.9-19.7c20.5-20.3,40.7-40.8,60.2-61.2
		C544,509.5,546.5,586.9,478.5,691.1z M680.2,162.8c-18.1,79-56,190.7-134.2,273.7c-26,27.7-53.4,55.7-81.4,83.4
		c-19.6,19.4-49.8,23.1-73.6,9.1c28.1-38.5,40.4-72.7,32.3-90.8c-2.8-6.7-9.2-11.1-16.5-11.3c-19.8-1.2-47.4,22.4-73.5,62.3
		c-22.4-17.4-29.6-48-17.5-73.7c11.1-23.6,26-54.6,50-103.7c39.7-81.2,104.8-145.3,163.6-190.9l8.3,6.3l7.5-9.9l-5.6-4.2
		c11.8-8.8,23.2-16.9,34-24.1c57-38.3,107.3-61.9,127-70.5C699.6,40.1,695.6,95.7,680.2,162.8z"/>
	<path class="st0" d="M570.1,201.4c-26.5-18.3-62.9-11.6-81.2,14.9s-11.6,62.9,14.9,81.2c9.7,6.7,21.2,10.3,33,10.3
		c3.6,0,7.1-0.3,10.6-1c15.2-2.7,28.7-11.5,37.5-24.2l0,0C603.2,256,596.5,219.8,570.1,201.4z M574.8,275.6
		c-14.5,20.9-43.1,26.1-64,11.6c-20.9-14.5-26.1-43.1-11.6-64c6.9-10,17.5-16.8,29.5-19c2.8-0.5,5.6-0.8,8.4-0.8
		c25.4,0,46,20.6,46,46C583,258.8,580.1,267.9,574.8,275.6L574.8,275.6z"/>
	
		<rect x="601.9" y="165.4" transform="matrix(0.6049 -0.7963 0.7963 0.6049 102.4736 552.6211)" class="st0" width="12.5" height="15.2"/>
	
		<rect x="626.1" y="183.8" transform="matrix(0.6049 -0.7963 0.7963 0.6049 97.3887 579.1628)" class="st0" width="12.5" height="15.2"/>
	
		<rect x="553.4" y="128.7" transform="matrix(0.6049 -0.7963 0.7963 0.6049 112.6314 499.5135)" class="st0" width="12.5" height="15.2"/>
	
		<rect x="577.7" y="147.1" transform="matrix(0.6049 -0.7963 0.7963 0.6049 107.5477 526.0736)" class="st0" width="12.5" height="15.2"/>
	
		<rect x="650.3" y="202.3" transform="matrix(0.6049 -0.7963 0.7963 0.6049 92.3029 605.739)" class="st0" width="12.5" height="15.2"/>
</g>
</svg>
