<svg xmlns="http://www.w3.org/2000/svg" viewBox="0 0 573.1 850.39"><defs><style>.cls-1{fill:#fff;}</style></defs><g id="Layer_2" data-name="Layer 2"><g id="Layer_1-2" data-name="Layer 1"><g id="ICONS"><path class="cls-1" d="M564.54,3.41c-.63.26-63.64,25.6-137.77,75.3-43.57,29.2-82.45,61-115.58,94.52-41.53,42-74.08,86.85-96.77,133.3l-5.54,11.35c-21.21,1.7-52.68,8.08-88.47,27.93C78,369.35,38.14,406.7,2,456.81l-2,2.73L31.69,540.2l6.64-6.26c.46-.44,30.5-28.57,66.11-49.43-7.5,8.61-14.64,17.59-20.78,26.24-27.61,38.91-56.83,126-58.06,129.71l-6.43,19.25,16-12.42c3.08-2.38,75.65-58.74,103.25-97.65a346,346,0,0,0,34.87-62.49,73,73,0,0,0,13,12.64v.06c-31.23,51.57-48.53,80.39-56.42,94.78-4.25,7.75-7.5,13.68-6.74,18.3C103.42,629,78.45,658.47,60.43,687.2,33,730.88,6.83,826.75,5.73,830.81L.41,850.39l15.32-13.31C18.9,834.32,93.8,769,121.2,725.31c16-25.5,32-61.5,39-87.37l.61-.19c5.8-2,11.3-8.27,82.21-98.69l.08-.1a73,73,0,0,0,17.62,7.89c-15.88,15.71-33.6,38.06-46.47,58.81-25.14,40.55-48.91,129.3-49.9,133.06l-5.22,19.61,15.25-13.39c2.92-2.57,71.85-63.32,97-103.87,4.15-6.69,8.25-14,12.14-21.46-7.29,38.73-21.71,73.75-22,74.33L258,702.36l86.66,1.16,1.85-2.81c34.35-51.71,55.23-102.4,62.17-150.59,5.86-40.76.52-72.57-5.51-93Q409,451,414.69,445c35.43-37.65,65.8-84,90.26-137.82,19.52-42.93,35.35-90.67,47.05-141.9C571.91,78.11,573,10,573,9.28L573.1,0ZM36.61,518.89,14,461.32c72.88-99.73,145.71-125.06,188.54-130.39-17.25,35.46-29,60-38.19,79.46a73.07,73.07,0,0,0-6.4,40.37C110.69,457,55.58,502.21,36.61,518.89Zm91.84,23.61C109.8,568.78,68,604.76,44.53,624,55,595.51,75.11,544.18,93.76,517.89a336.89,336.89,0,0,1,42.83-48.95,106.36,106.36,0,0,1,23.94-6.08,72.42,72.42,0,0,0,4.62,11.51C157.54,495.08,143.24,521.65,128.45,542.5ZM110.81,718.76c-18.92,30.16-63.21,72.67-87.12,94.63C33,782.31,52,723.93,71,693.76c17.25-27.5,41.9-56.57,60.46-71.61a88,88,0,0,0,8.58,5.44,90.54,90.54,0,0,0,8.56,6.38C142.05,658.49,126.15,694.31,110.81,718.76ZM233.38,531.45c-45.13,57.55-68.69,87.31-75.51,93.67-3-1.44-7.88-5.2-10.32-7.3l-.71-.55-.38-.21A59.73,59.73,0,0,1,136,610c3.54-8.63,23.07-41.2,60.93-103.74,28.55-47.15,55.73-67.77,68.86-67a6.28,6.28,0,0,1,5.91,4.09C277.08,455.39,267.4,488.07,233.38,531.45ZM261,634.57c-17,27.39-56.47,65.89-78.71,86.58,8.65-29.11,25.58-81.6,42.56-109C238.54,590,258,566,274.3,551l-1.53-1.66a72.63,72.63,0,0,0,8.72.53c.7,0,1.39,0,2.09,0,3,9.2,4.17,19.75,4.13,30.88A339.45,339.45,0,0,1,261,634.57Zm77.22,56.52-61.86-.82c7.09-18.83,23-65.48,23.68-107.15.49-1.31,1-2.6,1.43-3.89l-1.42-.51a114.29,114.29,0,0,0-4-30.34,73,73,0,0,0,36.94-19.68c20.5-20.29,40.67-40.77,60.24-61.16C403.69,509.46,406.2,586.9,338.17,691.09ZM539.92,162.76c-18.08,79-56,190.68-134.21,273.73-26,27.67-53.42,55.74-81.41,83.44a60.8,60.8,0,0,1-73.61,9.13c28.07-38.53,40.4-72.71,32.29-90.75A18.51,18.51,0,0,0,266.52,427c-19.79-1.21-47.38,22.42-73.51,62.33a60.57,60.57,0,0,1-17.51-73.67C186.6,392,201.55,361,225.5,312c39.67-81.21,104.8-145.3,163.57-190.85l8.33,6.33,7.54-9.92-5.59-4.25c11.77-8.81,23.21-16.87,34-24.14,57-38.26,107.34-61.86,127-70.51C559.28,40.13,555.26,95.71,539.92,162.76Z"/><path class="cls-1" d="M429.79,201.4a58.36,58.36,0,1,0-33.31,106.39,59.12,59.12,0,0,0,10.62-1,58,58,0,0,0,37.52-24.22h0A58.48,58.48,0,0,0,429.79,201.4Zm4.68,74.18a46,46,0,1,1,8.19-26.17,46,46,0,0,1-8.19,26.17Z"/><rect class="cls-1" x="461.56" y="165.44" width="12.46" height="15.21" transform="translate(47.03 440.89) rotate(-52.78)"/><rect class="cls-1" x="485.77" y="183.84" width="12.45" height="15.21" transform="translate(41.95 467.43) rotate(-52.78)"/><rect class="cls-1" x="413.13" y="128.65" width="12.46" height="15.21" transform="translate(57.19 387.78) rotate(-52.78)"/><rect class="cls-1" x="437.35" y="147.06" width="12.46" height="15.21" transform="translate(52.11 414.34) rotate(-52.78)"/><rect class="cls-1" x="510.01" y="202.25" width="12.46" height="15.21" transform="translate(36.86 494.01) rotate(-52.78)"/></g></g></g></svg>