<svg xmlns="http://www.w3.org/2000/svg" viewBox="0 0 1080 1080"><defs><style>.cls-1{fill:#fff;}</style></defs><g id="Layer_2" data-name="Layer 2"><path class="cls-1" d="M412,1063.56V733.39c0,165.88,80.25,287.28,215.14,340.3A543,543,0,0,1,412,1063.56Z"/><path class="cls-1" d="M1082.47,542A536.19,536.19,0,0,1,930.24,917c-25.64,6.55-55,10.23-89.21,10.23-109.48,0-198.25-71-198.25-202.7-1.48-118.36,75.45-202.7,193.82-202.7,59.18,0,99.13,10.37,125.76,22.2l35.51-167.18c-47.35-17.77-112.45-28.12-171.63-28.12C557,348.71,412,521.81,412,733.39V348.71H185V942.29C75.38,843.81,6.43,701,6.43,542,6.43,385.91,72.89,245.36,179,147.11c.71,62,46.84,112,118,112,76.16,0,122.45-50.76,122.45-113.49-1.13-48.33-26.79-88.21-70.63-105A536.59,536.59,0,0,1,544.46,4C841.61,4,1082.47,244.84,1082.47,542Z"/></g></svg>