<svg xmlns="http://www.w3.org/2000/svg" viewBox="0 0 1080 1080"><defs><style>.cls-1{fill:#999;}</style></defs><g id="Layer_2" data-name="Layer 2"><g id="Layer_4" data-name="Layer 4"><path class="cls-1" d="M764.06,447c-31.11,0-48.76,1.68-58,4.2V606.73h50.45c63.9,0,101.74-32,101.74-81.55C858.23,473.89,822.92,447,764.06,447ZM750.19,42.44A538.19,538.19,0,0,0,540,0C316.33,0,124.41,136,42.44,329.81A538.19,538.19,0,0,0,0,540c0,298.23,241.77,540,540,540,149,0,284-60.37,381.66-158H875.88c-8.41-16.81-22.7-62.22-38.67-132-16-71.46-40.36-90-93.33-90.8H706v182.5H579.09V362.91c41.2-6.73,101.74-11.77,170.68-11.77,84.07,0,142.93,12.61,183.29,44.56,34.47,26.9,53,67.26,53,119.39,0,71.46-51.29,121.07-100.06,138.73v2.51c39.52,16,61.38,53,75.67,105.11,7.8,28.57,15.43,59,22.46,85.86A537.71,537.71,0,0,0,1080,540C1080,316.33,944,124.41,750.19,42.44ZM548.27,242.23c-31.11-14.29-114.35-23.55-176.57-23.55-106.77,0-188.32,59.69-188.32,183.28,0,117.72,74,185.81,179.08,185.81,28.58,0,52.12-3.35,62.21-7.56V460.82H337.23V360.77h211V659.24c-39.52,13.45-114.35,32-189.18,32-103.42,0-178.24-26.07-230.37-75.66-51.29-49.61-79.87-123.6-79.87-206.84.84-188.33,137.88-295.95,323.7-295.95,73.14,0,148,15,175.72,27.62ZM764.06,447c-31.11,0-48.76,1.68-58,4.2V606.73h50.45c63.9,0,101.74-32,101.74-81.55C858.23,473.89,822.92,447,764.06,447Z"/></g></g></svg>