<svg xmlns="http://www.w3.org/2000/svg" viewBox="0 0 880.34 225.66"><defs><style>.cls-1{fill:#999;}.cls-2{fill:#fff;}</style></defs><g id="Layer_2" data-name="Layer 2"><g id="Layer_3" data-name="Layer 3"><path class="cls-1" d="M155.78,0H880.34a0,0,0,0,1,0,0V114.17A107.92,107.92,0,0,1,772.42,222.09H0a0,0,0,0,1,0,0V155.78A155.78,155.78,0,0,1,155.78,0Z"/><path class="cls-2" d="M202.68,129.37H125.19l-10,52.84h87.21a48.85,48.85,0,0,1-48,39.88H60.67L94.69,43a48.44,48.44,0,0,1,47.6-39.41h89.24l-7.78,39.87H141.4l-9.08,46.69h78.14Z"/><path class="cls-2" d="M392,215.93c-11.67,5.19-31.12,9.4-57.38,9.4-58,0-96.62-35.34-96.62-92.72,0-49,22.05-87.21,55.12-109.26,22.69-15.56,49.28-23,80.08-23,23.66,0,41.49,5.52,48,9.08l-13,37.93c-6.16-2.91-20.75-7.13-39.55-7.13S332,46.05,318.74,57.07C300.58,72.31,288.59,97,288.59,127.42c0,34.69,19.78,58,58,58,15.56,0,30.8-2.59,41.5-7.13Z"/><path class="cls-2" d="M604.86,222.09a1.82,1.82,0,0,1-1.81-2.1l13-88c3.56-23.67,8.43-53.82,14.59-85.26h-1C617.65,74.9,604,105.05,592,129L547.3,218.52H511L503.21,130c-1.95-24-3.57-54.15-4.87-83.32h-.65c-6.16,28.85-12.64,61.59-18.15,85.26l-21.38,88.73a1.84,1.84,0,0,1-1.79,1.4h-39a1.84,1.84,0,0,1-1.78-2.28L469.46,5a1.84,1.84,0,0,1,1.78-1.38h59.45a1.83,1.83,0,0,1,1.83,1.68l6.67,81.31c1.3,20.43,3.57,45.39,3.89,69.71h1.3c8.43-24.32,20.1-49.93,29.5-69.71l40-82a1.85,1.85,0,0,1,1.65-1h60a1.83,1.83,0,0,1,1.82,2.07l-29,214.85a1.83,1.83,0,0,1-1.82,1.59Z"/><path class="cls-2" d="M695.78,171.51a102.74,102.74,0,0,0,51.55,13.94c18.16,0,34.69-8.43,34.69-25.28,0-12.65-9.4-20.43-29.5-31.13-23-12.32-45.07-29.5-45.07-57.71,0-44.41,38.26-71,85.92-71,1.14,0,2.27,0,3.37,0a36.68,36.68,0,0,1,33.59,49.57h0c-7.14-3.89-22.7-9.73-40.53-9.4-22,0-33.39,10.69-33.39,22.69,0,12.64,13.29,20.75,31.77,31.12,26.59,13.62,43.44,31.45,43.44,57.71,0,48.63-40.2,73.6-88.83,73.6q-7.69-.09-14.63-.76a39,39,0,0,1-32.38-53.39Z"/></g></g></svg>