<svg xmlns="http://www.w3.org/2000/svg" viewBox="0 0 914.55 914.55"><defs><style>.cls-1{fill:#fff;}.cls-2{fill:#999;}</style></defs><g id="Layer_2" data-name="Layer 2"><g id="sihate"><rect class="cls-1" width="914.55" height="914.55" rx="89.62"/><path class="cls-2" d="M154.19,279.72l22.13.26a190.18,190.18,0,0,1,14.89-61.79c36.07-83.54,125-116.84,164.17-131.49C399.19,70.3,437.63,65.42,469,61.43a636.68,636.68,0,0,1,97.79-4.86l1-22a676.65,676.65,0,0,0-108.26,5.27c-22.83,3-44,6.87-57.8,10C379.65,55,217.35,92.3,167.81,219A209.08,209.08,0,0,0,154.19,279.72Z"/><path class="cls-2" d="M179,326.87l-72.85-.17c-2.67,0-18.34.35-30.06,13.09a41.3,41.3,0,0,0-10.62,25.38q-.21,75.36-.43,150.72c.1,2.6.88,17.66,13.54,28.85a41,41,0,0,0,27.57,10l234.89.68q.14,67.23.26,134.47c34.73,8.12,88.86,14.4,145.79-6.64,26.62-9.84,69.66-25.75,79.14-62.65C572,598.46,562.9,578.93,561,575c-9-18.28-27.28-34.15-87.15-51.74-51.84-15.24-63.41-10.77-103.66-20.68-35.88-8.84-112.18-27.79-157.62-90.47C190.24,381.33,182.26,348.93,179,326.87Z"/><path class="cls-2" d="M758.86,598.32l-22.13-.25a190.13,190.13,0,0,1-14.89,61.78c-36.07,83.55-125,116.84-164.17,131.49-43.81,16.4-82.26,21.29-113.62,25.28a636.47,636.47,0,0,1-97.79,4.85l-1,22a676.87,676.87,0,0,0,108.26-5.28c22.83-2.95,44-6.87,57.8-10,22.1-5.07,184.4-42.37,233.94-169A209.16,209.16,0,0,0,758.86,598.32Z"/><path class="cls-2" d="M734,551.17l72.85.17c2.67,0,18.34-.34,30.06-13.08a41.38,41.38,0,0,0,10.62-25.39L848,362.15c-.09-2.59-.87-17.66-13.53-28.85a41,41,0,0,0-27.57-10L572,322.58q-.12-67.24-.25-134.47c-34.73-8.13-88.86-14.4-145.79,6.64-26.62,9.84-69.66,25.75-79.15,62.64-5.7,22.2,3.37,41.72,5.28,45.61,8.95,18.28,27.28,34.15,87.15,51.75C491,370,502.6,365.52,542.86,375.43c35.88,8.83,112.18,27.78,157.61,90.47C722.81,496.71,730.79,529.12,734,551.17Z"/></g></g></svg>