<svg xmlns="http://www.w3.org/2000/svg" viewBox="0 0 813.94 270.36"><defs><style>.cls-1{font-size:21.29px;font-family:GilmerLight, Gilmer Light;letter-spacing:0.55em;}.cls-1,.cls-10,.cls-9{fill:#999;}.cls-1,.cls-10{opacity:0.5;}.cls-2{letter-spacing:0.41em;}.cls-3{letter-spacing:0.55em;}.cls-4{letter-spacing:0.53em;}.cls-5{letter-spacing:0.54em;}.cls-6{letter-spacing:0.43em;}.cls-7{letter-spacing:0.5em;}.cls-8{letter-spacing:0.55em;}</style></defs><g id="Layer_2" data-name="Layer 2"><g id="Layer_3" data-name="Layer 3"><text class="cls-1" transform="translate(169.73 265.16)">SIMPLE &amp; FI<tspan class="cls-2" x="245.89" y="0">T</tspan><tspan class="cls-3" x="267.85" y="0">, BETTER R</tspan><tspan class="cls-4" x="496.83" y="0">E</tspan><tspan class="cls-5" x="521.23" y="0">S</tspan><tspan class="cls-3" x="546.74" y="0">U</tspan><tspan class="cls-6" x="573.35" y="0">L</tspan><tspan class="cls-7" x="594.61" y="0">T</tspan><tspan class="cls-8" x="618.5" y="0">S</tspan></text><path class="cls-9" d="M391.53,43A517.06,517.06,0,0,1,572.42,83.13c14.53,4.91,30-.21,37.19-11.27,9-13.86,4-35.5-13.5-45.21C545.41,9.83,425-21.93,289.6,23.12A456.59,456.59,0,0,0,169.73,84,518.9,518.9,0,0,1,391.53,43Z"/><path class="cls-9" d="M139.44,63.5V225.68H113.32L31.78,120.27V225.68H0V63.5H26.24l81.43,105.18V63.5Z"/><path class="cls-9" d="M223.42,229c-18.28,0-33-5.47-44.43-16.41s-17.06-25.39-17.06-43.33c0-17.18,5.47-31.51,16.41-42.89s25.27-17.07,42.89-17.07c18.05,0,32.39,5.47,42.89,16.52s15.76,24.95,15.76,41.69a62.68,62.68,0,0,1-.66,10.5H191.14A28.11,28.11,0,0,0,201,196.68c5.58,4.71,13.24,7,23.08,7,13.13,0,22.32-5,27.58-15l26.69,7.88c-3.72,8.54-10.28,16.09-19.8,22.54s-21.12,9.74-34.79,9.74Zm27.46-69.48a27.34,27.34,0,0,0-9.19-17.94c-5.36-4.82-12.25-7.23-20.79-7.23-8.21,0-15,2.52-20.46,7.45a28,28,0,0,0-9.52,17.72Z"/><path class="cls-9" d="M468.14,113.62,424,225.68H396.41L373.1,154.23l-23.31,71.45H322.11L283.05,112.32H313.8l23.52,75.94,23.31-75.94h24.83L409,188.26l23.52-75.94Z"/><path class="cls-10" d="M518.56,227.8c-11.78,0-22.08-3.22-30.88-9.74S473,203.59,470,194.16l7.86-2.27a39.92,39.92,0,0,0,15.08,20.27c7.39,5.34,16,8,26,8,9.74,0,17.76-2.44,24-7.39s9.43-10.61,9.43-17a16.8,16.8,0,0,0-5.18-12.66c-3.46-3.3-9.51-6.36-18.24-9.19l-27.82-9Q489.06,161,482.81,155c-4.17-4-6.21-9.2-6.21-15.56,0-7.62,3.46-14.22,10.37-19.88s15.56-8.49,25.86-8.49c11.08,0,20.35,2.44,27.89,7.31a45.13,45.13,0,0,1,16.82,19.25l-7.7,2.36a34.48,34.48,0,0,0-14.22-15.72c-6.45-3.77-14.15-5.66-23.19-5.66-8.09,0-14.77,2-20,6.21s-7.85,9-7.85,14.62a13.92,13.92,0,0,0,4.71,10.84c3.14,2.83,8.57,5.43,16.19,7.86l27,8.65c9.67,3,16.74,6.6,21.3,10.84s6.84,10.14,6.84,17.61c0,8.88-3.93,16.5-11.87,22.86s-17.92,9.51-30,9.51Z"/><path class="cls-9" d="M580.34,113h22.4V225.68h-22.4Z"/><path class="cls-10" d="M706.63,218.13v7.55H620.35v-5.5l73.39-99.57H622.47V113h82.36v5.5l-73,99.64Z"/><path class="cls-10" d="M734.07,120.61v44.24h61v7.07h-61v46.21h69.08v7.55H725.9V113h77.4v7.62Z"/></g></g></svg>