<svg xmlns="http://www.w3.org/2000/svg" viewBox="0 0 949.77 224.88"><defs><style>.cls-1{fill:#999;}.cls-2{fill:#fff;}</style></defs><g id="Layer_2" data-name="Layer 2"><g id="Layer_3" data-name="Layer 3"><rect class="cls-1" width="949.77" height="222.09" rx="104.63"/><path class="cls-2" d="M173.17,217.06c-7.28,3.51-24.54,7.82-46.38,7.82-62.83,0-95.19-39.37-95.19-91.14,0-62,44.23-96.27,99.24-96.27,21.3,0,37.48,4.05,44.76,8.09L167,77.92a86.54,86.54,0,0,0-34.52-6.74c-32.35,0-57.7,19.68-57.7,60.13,0,36.4,21.57,59.32,58,59.32,12.68,0,26.16-2.42,34.52-5.93Z"/><path class="cls-2" d="M354.11,152.48c-.81-21.84-1.62-48.27-1.62-74.7H352c-5.94,23.19-13.49,49.08-20.5,70.38l-22.11,70.92H277.26L257.84,149C251.91,127.4,246,101.51,241.4,77.78h-.54c-.81,24.54-1.89,52.59-3,75.24l-3.5,69h-38L208,40.3H262.7L280.5,101c5.93,21,11.32,43.69,15.37,65h1.07c4.86-21,11.06-45,17.26-65.26l19.15-60.4h53.93L397,222.05H357.08Z"/><path class="cls-2" d="M429.89,179.71c10.79,5.67,28.05,11.33,45.57,11.33,18.88,0,28.86-7.82,28.86-19.69,0-11.32-8.63-17.79-30.47-25.34-30.21-10.79-50.16-27.51-50.16-53.93,0-31,26.16-54.47,68.76-54.47,20.77,0,35.6,4,46.38,9.16l-9.17,32.9A85.06,85.06,0,0,0,491.91,71c-17.8,0-26.42,8.36-26.42,17.53,0,11.6,10,16.72,33.7,25.62,32.09,11.86,46.92,28.58,46.92,54.2,0,30.47-23.19,56.36-73.07,56.36-20.77,0-41.26-5.67-51.51-11.33Z"/><path class="cls-2" d="M726,213.69c-12.68,4.31-36.68,10.25-60.67,10.25-33.17,0-57.17-8.36-73.89-24.27C575,183.76,565.8,160,565.8,133.33c.27-60.4,44.23-94.92,103.82-94.92,23.46,0,41.53,4.59,50.43,8.63l-8.63,33.17c-10-4.58-22.12-7.82-42.07-7.82-34.25,0-60.4,19.15-60.4,58.79,0,37.75,23.73,59.59,57.44,59.59,9.16,0,16.71-1.08,20-2.43V150.05h-28V118H726Z"/><path class="cls-2" d="M799.06,38.82V143.18c0,31.54,12.13,47.45,32.9,47.45,21.57,0,33.43-15.1,33.43-47.45V38.82h41V140.75c0,56.09-28.31,82.78-75.77,82.78-45.84,0-72.54-25.62-72.54-83.32V38.82Z"/></g></g></svg>